<mxfile host="app.diagrams.net" modified="2022-01-25T21:24:21.578Z" agent="5.0 (Windows NT 10.0; Win64; x64) AppleWebKit/537.36 (KHTML, like Gecko) Chrome/97.0.4692.99 Safari/537.36" etag="2ZmpQKAlhdgX0rNAeDbA" version="14.8.5" type="github">
  <diagram id="OYTCX8Q5fdKfAbgxsUNV" name="Page-1">
    <mxGraphModel dx="1088" dy="604" grid="1" gridSize="10" guides="1" tooltips="1" connect="1" arrows="1" fold="1" page="1" pageScale="1" pageWidth="950" pageHeight="600" math="0" shadow="0">
      <root>
        <mxCell id="0" />
        <mxCell id="1" parent="0" />
        <mxCell id="axO70TZTVMyydTWM-uIK-16" value="Forward" style="rounded=1;whiteSpace=wrap;html=1;align=center;verticalAlign=top;" vertex="1" parent="1">
          <mxGeometry x="315" y="70" width="130" height="210" as="geometry" />
        </mxCell>
        <mxCell id="axO70TZTVMyydTWM-uIK-15" value="Requests" style="rounded=1;whiteSpace=wrap;html=1;align=center;verticalAlign=top;" vertex="1" parent="1">
          <mxGeometry x="135" y="70" width="120" height="210" as="geometry" />
        </mxCell>
        <mxCell id="axO70TZTVMyydTWM-uIK-8" value="" style="edgeStyle=orthogonalEdgeStyle;rounded=0;orthogonalLoop=1;jettySize=auto;html=1;" edge="1" parent="1" source="axO70TZTVMyydTWM-uIK-1" target="axO70TZTVMyydTWM-uIK-2">
          <mxGeometry relative="1" as="geometry" />
        </mxCell>
        <mxCell id="axO70TZTVMyydTWM-uIK-1" value="HTTP" style="rounded=1;whiteSpace=wrap;html=1;" vertex="1" parent="1">
          <mxGeometry x="160" y="120" width="70" height="30" as="geometry" />
        </mxCell>
        <mxCell id="axO70TZTVMyydTWM-uIK-10" style="edgeStyle=orthogonalEdgeStyle;rounded=0;orthogonalLoop=1;jettySize=auto;html=1;entryX=0;entryY=0.5;entryDx=0;entryDy=0;" edge="1" parent="1" source="axO70TZTVMyydTWM-uIK-2" target="axO70TZTVMyydTWM-uIK-9">
          <mxGeometry relative="1" as="geometry" />
        </mxCell>
        <mxCell id="axO70TZTVMyydTWM-uIK-11" style="edgeStyle=orthogonalEdgeStyle;rounded=0;orthogonalLoop=1;jettySize=auto;html=1;entryX=0;entryY=0.5;entryDx=0;entryDy=0;" edge="1" parent="1" source="axO70TZTVMyydTWM-uIK-2" target="axO70TZTVMyydTWM-uIK-3">
          <mxGeometry relative="1" as="geometry" />
        </mxCell>
        <mxCell id="axO70TZTVMyydTWM-uIK-2" value="pfSense - Firewall" style="rounded=1;whiteSpace=wrap;html=1;" vertex="1" parent="1">
          <mxGeometry x="320" y="172.5" width="120" height="25" as="geometry" />
        </mxCell>
        <mxCell id="axO70TZTVMyydTWM-uIK-3" value="ASTERISK&lt;br&gt;10.200.18.104&lt;br&gt;WSS&amp;gt;8089" style="rounded=1;whiteSpace=wrap;html=1;" vertex="1" parent="1">
          <mxGeometry x="520" y="250" width="120" height="60" as="geometry" />
        </mxCell>
        <mxCell id="axO70TZTVMyydTWM-uIK-7" style="edgeStyle=orthogonalEdgeStyle;rounded=0;orthogonalLoop=1;jettySize=auto;html=1;entryX=0;entryY=0.5;entryDx=0;entryDy=0;" edge="1" parent="1" source="axO70TZTVMyydTWM-uIK-4" target="axO70TZTVMyydTWM-uIK-2">
          <mxGeometry relative="1" as="geometry" />
        </mxCell>
        <mxCell id="axO70TZTVMyydTWM-uIK-4" value="HTTPS" style="rounded=1;whiteSpace=wrap;html=1;" vertex="1" parent="1">
          <mxGeometry x="160" y="170" width="70" height="30" as="geometry" />
        </mxCell>
        <mxCell id="axO70TZTVMyydTWM-uIK-6" style="edgeStyle=orthogonalEdgeStyle;rounded=0;orthogonalLoop=1;jettySize=auto;html=1;entryX=0.5;entryY=1;entryDx=0;entryDy=0;" edge="1" parent="1" source="axO70TZTVMyydTWM-uIK-5" target="axO70TZTVMyydTWM-uIK-2">
          <mxGeometry relative="1" as="geometry">
            <mxPoint x="380" y="210" as="targetPoint" />
          </mxGeometry>
        </mxCell>
        <mxCell id="axO70TZTVMyydTWM-uIK-5" value="WSS" style="rounded=1;whiteSpace=wrap;html=1;" vertex="1" parent="1">
          <mxGeometry x="160" y="220" width="70" height="30" as="geometry" />
        </mxCell>
        <mxCell id="axO70TZTVMyydTWM-uIK-9" value="NGINX - PROXY&lt;br&gt;10.200.18.112&lt;br&gt;HTTP&amp;gt;80&lt;br&gt;HTTPS&amp;gt;443" style="rounded=1;whiteSpace=wrap;html=1;" vertex="1" parent="1">
          <mxGeometry x="520" y="60" width="120" height="60" as="geometry" />
        </mxCell>
        <mxCell id="axO70TZTVMyydTWM-uIK-13" value="&lt;b&gt;Responde ao DNS:&lt;/b&gt;&lt;br&gt;hydr4.bashtechnology.com.br&lt;br&gt;Com certificado SSL" style="text;html=1;strokeColor=none;fillColor=none;align=left;verticalAlign=middle;whiteSpace=wrap;rounded=0;" vertex="1" parent="1">
          <mxGeometry x="660" y="52" width="217" height="76" as="geometry" />
        </mxCell>
        <mxCell id="axO70TZTVMyydTWM-uIK-14" value="&lt;b&gt;Responde ao DNS:&lt;/b&gt;&lt;br&gt;hydr4.bashtechnology.com.br&lt;br&gt;Com certificado SSL&lt;br&gt;Configurado dentro do Asterisk&amp;nbsp;&lt;br&gt;em http.conf" style="text;html=1;strokeColor=none;fillColor=none;align=left;verticalAlign=middle;whiteSpace=wrap;rounded=0;" vertex="1" parent="1">
          <mxGeometry x="650" y="235" width="217" height="90" as="geometry" />
        </mxCell>
        <mxCell id="axO70TZTVMyydTWM-uIK-17" value="Precisa centralizar o certificado SSL&lt;br&gt;Precisa ser global." style="ellipse;whiteSpace=wrap;html=1;align=center;verticalAlign=middle;fontColor=#FF0000;fontStyle=1" vertex="1" parent="1">
          <mxGeometry x="650" y="125" width="250" height="100" as="geometry" />
        </mxCell>
      </root>
    </mxGraphModel>
  </diagram>
</mxfile>
